<?xml version="1.0" encoding="utf-8"?>
<!-- Generator: Adobe Illustrator 16.0.0, SVG Export Plug-In . SVG Version: 6.00 Build 0)  -->
<!DOCTYPE svg PUBLIC "-//W3C//DTD SVG 1.1//EN" "http://www.w3.org/Graphics/SVG/1.1/DTD/svg11.dtd">
<svg version="1.1" id="Layer_1" xmlns="http://www.w3.org/2000/svg" xmlns:xlink="http://www.w3.org/1999/xlink" x="0px" y="0px"
	 width="100px" height="100px" viewBox="0 0 100 100" enable-background="new 0 0 100 100" xml:space="preserve">
<path fill="#FFFFFF" d="M89.453,33.371c2.27,5.283,3.404,10.826,3.404,16.63c0,5.802-1.135,11.347-3.404,16.628
	c-2.27,5.283-5.32,9.842-9.151,13.672c-3.833,3.832-8.39,6.883-13.672,9.152c-5.283,2.27-10.826,3.404-16.63,3.404
	c-6.66,0-12.919-1.414-18.778-4.242c-5.859-2.826-10.808-6.787-14.844-11.885c-4.037-5.098-6.779-10.9-8.23-17.412
	c-0.111-0.52,0.019-1.021,0.391-1.506c0.335-0.447,0.8-0.67,1.395-0.67h11.105c0.855,0,1.413,0.428,1.674,1.283
	c1.86,6.027,5.302,10.893,10.324,14.594c5.021,3.701,10.677,5.553,16.964,5.553c3.869,0,7.562-0.754,11.077-2.262
	c3.516-1.506,6.558-3.543,9.124-6.109s4.604-5.609,6.11-9.125S78.572,53.869,78.572,50c0-3.869-0.754-7.562-2.261-11.077
	s-3.544-6.558-6.11-9.124c-2.566-2.567-5.608-4.604-9.124-6.11S53.869,21.428,50,21.428c-3.646,0-7.143,0.661-10.491,1.981
	c-3.348,1.321-6.325,3.209-8.929,5.664l7.646,7.701c1.152,1.116,1.413,2.399,0.781,3.851c-0.633,1.488-1.73,2.231-3.293,2.231h-25
	c-0.968,0-1.805-0.353-2.511-1.06c-0.707-0.707-1.061-1.544-1.061-2.512v-25c0-1.562,0.744-2.659,2.232-3.292
	c1.451-0.633,2.734-0.372,3.851,0.781l7.254,7.198c3.98-3.757,8.528-6.668,13.645-8.733C39.238,8.175,44.531,7.143,50,7.143
	c5.804,0,11.347,1.135,16.63,3.404c5.282,2.27,9.839,5.32,13.672,9.151C84.133,23.531,87.184,28.088,89.453,33.371z"/>
</svg>
