<?xml version="1.0" encoding="utf-8"?>
<!-- Generator: Adobe Illustrator 16.0.0, SVG Export Plug-In . SVG Version: 6.00 Build 0)  -->
<!DOCTYPE svg PUBLIC "-//W3C//DTD SVG 1.1//EN" "http://www.w3.org/Graphics/SVG/1.1/DTD/svg11.dtd">
<svg version="1.1" id="Layer_1" xmlns="http://www.w3.org/2000/svg" xmlns:xlink="http://www.w3.org/1999/xlink" x="0px" y="0px"
	 width="100px" height="100px" viewBox="0 0 100 100" enable-background="new 0 0 100 100" xml:space="preserve">
<path fill="#FFFFFF" d="M78.739,30.19L58.929,50l19.811,19.81l8.036-8.035c1.078-1.154,2.38-1.414,3.906-0.781
	c1.45,0.633,2.176,1.729,2.176,3.291v25c0,0.967-0.354,1.805-1.061,2.512s-1.544,1.061-2.511,1.061h-25
	c-1.562,0-2.661-0.744-3.292-2.232c-0.634-1.451-0.373-2.734,0.781-3.85l8.035-8.037L50,58.928L30.189,78.738l8.036,8.037
	c1.152,1.115,1.413,2.398,0.781,3.85c-0.633,1.488-1.73,2.232-3.293,2.232h-25c-0.968,0-1.805-0.354-2.511-1.061
	c-0.707-0.707-1.061-1.545-1.061-2.512v-25c0-1.562,0.744-2.658,2.232-3.291c1.451-0.633,2.734-0.373,3.851,0.781l8.035,8.035
	L41.071,50L21.261,30.19l-8.035,8.035c-0.707,0.708-1.544,1.061-2.512,1.061c-0.446,0-0.893-0.093-1.339-0.279
	c-1.488-0.632-2.232-1.729-2.232-3.292v-25c0-0.967,0.354-1.804,1.061-2.511c0.706-0.707,1.543-1.061,2.511-1.061h25
	c1.562,0,2.66,0.744,3.293,2.232c0.632,1.45,0.371,2.734-0.781,3.85l-8.036,8.036L50,41.072l19.811-19.811l-8.035-8.036
	c-1.154-1.115-1.415-2.399-0.781-3.85c0.631-1.488,1.729-2.232,3.292-2.232h25c0.967,0,1.804,0.354,2.511,1.061
	s1.061,1.544,1.061,2.511v25c0,1.562-0.726,2.66-2.176,3.292c-0.484,0.187-0.949,0.279-1.396,0.279
	c-0.968,0-1.806-0.353-2.511-1.061L78.739,30.19z"/>
</svg>
