<?xml version="1.0" encoding="utf-8"?>
<!-- Generator: Adobe Illustrator 16.0.0, SVG Export Plug-In . SVG Version: 6.00 Build 0)  -->
<!DOCTYPE svg PUBLIC "-//W3C//DTD SVG 1.1//EN" "http://www.w3.org/Graphics/SVG/1.1/DTD/svg11.dtd">
<svg version="1.1" id="Layer_1" xmlns="http://www.w3.org/2000/svg" xmlns:xlink="http://www.w3.org/1999/xlink" x="0px" y="0px"
	 width="100px" height="100px" viewBox="0 0 100 100" enable-background="new 0 0 100 100" xml:space="preserve">
<g>
	<path fill="#FFFFFF" d="M92.5,43.968v12.284c0,0.443-0.147,0.869-0.444,1.275c-0.294,0.404-0.662,0.645-1.105,0.717l-10.238,1.551
		c-0.701,1.992-1.419,3.672-2.157,5.035c1.29,1.846,3.266,4.391,5.921,7.637c0.368,0.443,0.554,0.904,0.554,1.383
		c0,0.482-0.167,0.904-0.498,1.273c-0.997,1.365-2.821,3.357-5.479,5.977c-2.657,2.621-4.39,3.93-5.202,3.93
		c-0.443,0-0.922-0.166-1.439-0.498l-7.636-5.977c-1.623,0.848-3.302,1.549-5.035,2.102c-0.591,5.02-1.126,8.449-1.604,10.295
		c-0.259,1.031-0.924,1.549-1.994,1.549H43.857c-0.517,0-0.969-0.156-1.355-0.471c-0.388-0.312-0.601-0.711-0.637-1.189
		l-1.549-10.184c-1.807-0.59-3.468-1.271-4.98-2.047l-7.803,5.922c-0.369,0.332-0.83,0.498-1.383,0.498
		c-0.517,0-0.978-0.203-1.383-0.609c-4.648-4.205-7.692-7.305-9.131-9.297c-0.259-0.369-0.387-0.791-0.387-1.273
		c0-0.441,0.147-0.865,0.442-1.271c0.553-0.775,1.494-2,2.822-3.682c1.329-1.676,2.324-2.977,2.988-3.9
		c-0.996-1.842-1.752-3.668-2.269-5.479L9.104,58.023c-0.48-0.072-0.867-0.304-1.162-0.69S7.5,56.512,7.5,56.031V43.747
		c0-0.442,0.147-0.866,0.442-1.273c0.295-0.405,0.645-0.645,1.052-0.719l10.293-1.549c0.516-1.696,1.235-3.394,2.158-5.091
		c-1.476-2.103-3.45-4.648-5.921-7.636c-0.369-0.442-0.553-0.886-0.553-1.328c0-0.369,0.166-0.793,0.498-1.273
		c0.959-1.328,2.775-3.311,5.451-5.949c2.675-2.638,4.418-3.957,5.229-3.957c0.479,0,0.959,0.185,1.439,0.554l7.636,5.921
		c1.623-0.849,3.301-1.549,5.036-2.103c0.59-5.017,1.125-8.448,1.604-10.293C42.123,8.018,42.786,7.5,43.857,7.5h12.284
		c0.518,0,0.969,0.157,1.357,0.47c0.387,0.314,0.6,0.71,0.637,1.189l1.549,10.183c1.808,0.59,3.468,1.272,4.98,2.047l7.857-5.921
		c0.333-0.333,0.774-0.499,1.328-0.499c0.479,0,0.941,0.185,1.383,0.554c4.761,4.391,7.804,7.526,9.133,9.408
		c0.258,0.295,0.387,0.701,0.387,1.217c0,0.442-0.146,0.867-0.443,1.273c-0.552,0.775-1.493,2.001-2.822,3.68
		c-1.326,1.679-2.324,2.979-2.988,3.901c0.959,1.845,1.716,3.652,2.271,5.423l10.125,1.55c0.48,0.074,0.868,0.304,1.162,0.691
		C92.353,43.055,92.5,43.489,92.5,43.968z M60.016,60.016c2.767-2.766,4.15-6.105,4.15-10.016c0-3.91-1.384-7.249-4.15-10.016
		c-2.766-2.767-6.106-4.15-10.016-4.15c-3.91,0-7.249,1.383-10.016,4.15c-2.767,2.767-4.15,6.106-4.15,10.016
		c0,3.911,1.383,7.25,4.15,10.016c2.767,2.768,6.106,4.15,10.016,4.15C53.909,64.166,57.25,62.783,60.016,60.016z"/>
</g>
</svg>
