<?xml version="1.0" encoding="utf-8"?>
<!-- Generator: Adobe Illustrator 16.0.0, SVG Export Plug-In . SVG Version: 6.00 Build 0)  -->
<!DOCTYPE svg PUBLIC "-//W3C//DTD SVG 1.1//EN" "http://www.w3.org/Graphics/SVG/1.1/DTD/svg11.dtd">
<svg version="1.1" id="Layer_1" xmlns="http://www.w3.org/2000/svg" xmlns:xlink="http://www.w3.org/1999/xlink" x="0px" y="0px"
	 width="100px" height="100px" viewBox="0 0 100 100" enable-background="new 0 0 100 100" xml:space="preserve">
<g>
	<path fill="#CCCCCC" d="M81.252,1.501c-4.2-1.394-8.025-1.182-10.343,0.898c-0.174,0.149-0.352,0.284-0.521,0.451L9.019,64.221
		c-0.825,0.82-1.379,1.777-1.668,2.721l8.307,0.154L81.252,1.501z"/>
	<path fill="#CCCCCC" d="M91.578,7.835c-1.289-1.196-2.632-2.241-3.985-3.156l-66.771,66.77l-0.214,8.092l13.736-0.012
		l-0.123,12.645c0.551-0.306,1.088-0.693,1.572-1.181l61.373-61.369c0.265-0.265,0.499-0.546,0.715-0.836
		c0.116-0.11,0.242-0.203,0.355-0.323C102.215,24.165,99.237,14.93,91.578,7.835z"/>
	<path fill="#CCCCCC" d="M3.837,81.762L0,99.385l17.36-3.459C14.655,84.91,3.837,81.762,3.837,81.762z"/>
</g>
</svg>
