<?xml version="1.0" encoding="utf-8"?>
<!-- Generator: Adobe Illustrator 16.0.0, SVG Export Plug-In . SVG Version: 6.00 Build 0)  -->
<!DOCTYPE svg PUBLIC "-//W3C//DTD SVG 1.1//EN" "http://www.w3.org/Graphics/SVG/1.1/DTD/svg11.dtd">
<svg version="1.1" id="Layer_1" xmlns="http://www.w3.org/2000/svg" xmlns:xlink="http://www.w3.org/1999/xlink" x="0px" y="0px"
	 width="100px" height="100px" viewBox="0 0 100 100" enable-background="new 0 0 100 100" xml:space="preserve">
<path fill="#FFFFFF" d="M28.571,16.071v10.715c0,1.488-0.521,2.753-1.562,3.794c-1.042,1.042-2.307,1.562-3.794,1.562H5.357
	c-1.488,0-2.753-0.521-3.794-1.562C0.521,29.539,0,28.274,0,26.786V16.071c0-1.487,0.521-2.752,1.562-3.794
	c1.041-1.041,2.306-1.562,3.794-1.562h17.857c1.487,0,2.752,0.521,3.794,1.562C28.05,13.319,28.571,14.584,28.571,16.071z
	 M28.571,44.643v10.715c0,1.488-0.521,2.754-1.562,3.795c-1.042,1.041-2.307,1.562-3.794,1.562H5.357
	c-1.488,0-2.753-0.521-3.794-1.562C0.521,58.111,0,56.846,0,55.357V44.643c0-1.487,0.521-2.752,1.562-3.794
	c1.041-1.041,2.306-1.562,3.794-1.562h17.857c1.487,0,2.752,0.521,3.794,1.562C28.05,41.891,28.571,43.155,28.571,44.643z
	 M28.571,73.215v10.714c0,1.488-0.521,2.753-1.562,3.794c-1.042,1.043-2.307,1.562-3.794,1.562H5.357
	c-1.488,0-2.753-0.52-3.794-1.562C0.521,86.682,0,85.417,0,83.929V73.215c0-1.488,0.521-2.754,1.562-3.795
	c1.041-1.041,2.306-1.562,3.794-1.562h17.857c1.487,0,2.752,0.521,3.794,1.562C28.05,70.461,28.571,71.727,28.571,73.215z
	 M100,16.071v10.715c0,1.488-0.521,2.753-1.562,3.794c-1.041,1.042-2.307,1.562-3.795,1.562H41.071
	c-1.488,0-2.753-0.521-3.794-1.562c-1.042-1.041-1.562-2.306-1.562-3.794V16.071c0-1.487,0.521-2.752,1.562-3.794
	c1.041-1.041,2.306-1.562,3.794-1.562h53.571c1.488,0,2.754,0.521,3.795,1.562C99.479,13.319,100,14.584,100,16.071z M100,44.643
	v10.715c0,1.488-0.521,2.754-1.562,3.795s-2.307,1.562-3.795,1.562H41.071c-1.488,0-2.753-0.521-3.794-1.562
	c-1.042-1.041-1.562-2.307-1.562-3.795V44.643c0-1.487,0.521-2.752,1.562-3.794c1.041-1.041,2.306-1.562,3.794-1.562h53.571
	c1.488,0,2.754,0.521,3.795,1.562C99.479,41.891,100,43.155,100,44.643z M100,73.215v10.714c0,1.488-0.521,2.753-1.562,3.794
	c-1.041,1.043-2.307,1.562-3.795,1.562H41.071c-1.488,0-2.753-0.52-3.794-1.562c-1.042-1.041-1.562-2.306-1.562-3.794V73.215
	c0-1.488,0.521-2.754,1.562-3.795c1.041-1.041,2.306-1.562,3.794-1.562h53.571c1.488,0,2.754,0.521,3.795,1.562
	S100,71.727,100,73.215z"/>
</svg>
