<?xml version="1.0" encoding="utf-8"?>
<!-- Generator: Adobe Illustrator 16.0.0, SVG Export Plug-In . SVG Version: 6.00 Build 0)  -->
<!DOCTYPE svg PUBLIC "-//W3C//DTD SVG 1.1//EN" "http://www.w3.org/Graphics/SVG/1.1/DTD/svg11.dtd">
<svg version="1.1" id="Layer_1" xmlns="http://www.w3.org/2000/svg" xmlns:xlink="http://www.w3.org/1999/xlink" x="0px" y="0px"
	 width="100px" height="100px" viewBox="0 0 100 100" enable-background="new 0 0 100 100" xml:space="preserve">
<path fill="#FFFFFF" d="M79.241,7.785c0.854,0,1.674,0.167,2.455,0.502c1.228,0.484,2.204,1.247,2.93,2.288
	c0.726,1.042,1.089,2.195,1.089,3.46v71.93c0,1.266-0.363,2.418-1.089,3.461c-0.726,1.041-1.702,1.803-2.93,2.287
	c-0.707,0.297-1.526,0.447-2.455,0.447c-1.786,0-3.33-0.596-4.632-1.787L50,66.713l-24.609,23.66
	c-1.339,1.229-2.883,1.842-4.632,1.842c-0.856,0-1.674-0.166-2.455-0.502c-1.228-0.484-2.205-1.246-2.93-2.287
	c-0.726-1.043-1.088-2.195-1.088-3.461v-71.93c0-1.265,0.363-2.418,1.088-3.46c0.725-1.041,1.702-1.804,2.93-2.288
	c0.781-0.334,1.599-0.502,2.455-0.502H79.241z"/>
</svg>
