<?xml version="1.0" encoding="utf-8"?>
<!-- Generator: Adobe Illustrator 16.0.0, SVG Export Plug-In . SVG Version: 6.00 Build 0)  -->
<!DOCTYPE svg PUBLIC "-//W3C//DTD SVG 1.1//EN" "http://www.w3.org/Graphics/SVG/1.1/DTD/svg11.dtd">
<svg version="1.1" id="Layer_1" xmlns="http://www.w3.org/2000/svg" xmlns:xlink="http://www.w3.org/1999/xlink" x="0px" y="0px"
	 width="100px" height="100px" viewBox="0 0 100 100" enable-background="new 0 0 100 100" xml:space="preserve">
<path fill="#FFFFFF" d="M100,50c0,0.968-0.354,1.805-1.061,2.511L84.654,66.797c-0.707,0.707-1.545,1.06-2.512,1.06
	s-1.805-0.353-2.51-1.06c-0.707-0.707-1.061-1.544-1.061-2.512v-7.143h-21.43v21.429h7.143c0.969,0,1.805,0.354,2.512,1.06
	c0.707,0.708,1.061,1.545,1.061,2.512c0,0.968-0.354,1.805-1.061,2.511L52.512,98.939C51.805,99.646,50.966,100,50,100
	c-0.968,0-1.805-0.354-2.511-1.061L33.203,84.653c-0.707-0.706-1.06-1.543-1.06-2.511c0-0.967,0.353-1.804,1.06-2.512
	c0.706-0.706,1.543-1.06,2.511-1.06h7.143V57.143H21.429v7.143c0,0.968-0.354,1.805-1.061,2.512c-0.707,0.707-1.544,1.06-2.511,1.06
	c-0.968,0-1.805-0.353-2.511-1.06L1.06,52.511C0.353,51.805,0,50.968,0,50s0.353-1.805,1.06-2.512l14.286-14.285
	c0.706-0.707,1.543-1.061,2.511-1.061c0.967,0,1.804,0.354,2.511,1.061c0.707,0.707,1.061,1.544,1.061,2.511v7.143h21.428V21.428
	h-7.143c-0.968,0-1.805-0.353-2.511-1.06c-0.707-0.707-1.06-1.544-1.06-2.512c0-0.967,0.353-1.804,1.06-2.511L47.489,1.06
	C48.195,0.354,49.032,0,50,0c0.966,0,1.805,0.354,2.512,1.06l14.285,14.286c0.707,0.707,1.061,1.544,1.061,2.511
	c0,0.968-0.354,1.805-1.061,2.512s-1.543,1.06-2.512,1.06h-7.143v21.429h21.43v-7.143c0-0.967,0.354-1.804,1.061-2.511
	c0.705-0.707,1.543-1.061,2.51-1.061s1.805,0.354,2.512,1.061l14.285,14.285C99.646,48.195,100,49.032,100,50z"/>
</svg>
