<?xml version="1.0" encoding="utf-8"?>
<!-- Generator: Adobe Illustrator 16.0.0, SVG Export Plug-In . SVG Version: 6.00 Build 0)  -->
<!DOCTYPE svg PUBLIC "-//W3C//DTD SVG 1.1//EN" "http://www.w3.org/Graphics/SVG/1.1/DTD/svg11.dtd">
<svg version="1.1" id="Layer_1" xmlns="http://www.w3.org/2000/svg" xmlns:xlink="http://www.w3.org/1999/xlink" x="0px" y="0px"
	 width="100px" height="100px" viewBox="0 0 100 100" enable-background="new 0 0 100 100" xml:space="preserve">
<g>
	<g>
		<path fill="#AAAAAA" d="M40.843,73.251c-0.034,0.034-0.059,0.071-0.093,0.108l-11.679,11.59c-1.909,1.898-4.44,2.927-7.117,2.902
			c-2.677-0.021-5.185-1.099-7.062-3.024c-3.871-3.982-3.815-10.403,0.126-14.318L26.7,58.919c0.035-0.033,0.077-0.056,0.115-0.093
			L40.7,45.047c-2.158-0.733-4.434-1.157-6.781-1.178c-5.891-0.054-11.448,2.216-15.648,6.382L6.588,61.845
			c-8.674,8.601-8.799,22.729-0.275,31.492c4.127,4.242,9.65,6.611,15.54,6.662c5.889,0.052,11.451-2.214,15.652-6.382
			l11.678-11.594c4.204-4.168,6.547-9.743,6.602-15.687c0.018-2.372-0.364-4.67-1.049-6.868L40.843,73.251z"/>
		<path fill="#AAAAAA" d="M93.676,6.661c-4.134-4.243-9.651-6.607-15.54-6.66C72.24-0.053,66.688,2.215,62.483,6.386L50.804,17.973
			c-6.104,6.054-7.952,14.833-5.557,22.563l13.877-13.769c0.041-0.043,0.067-0.091,0.107-0.13l11.681-11.588
			c1.915-1.895,4.437-2.925,7.117-2.9c2.678,0.021,5.184,1.099,7.063,3.026c1.875,1.928,2.896,4.478,2.875,7.184
			c-0.028,2.703-1.092,5.237-2.999,7.133L73.288,41.077c-0.031,0.032-0.068,0.052-0.101,0.083L59.29,54.947
			c2.161,0.731,4.434,1.156,6.778,1.178c5.891,0.05,11.449-2.216,15.649-6.384l11.685-11.588c4.2-4.17,6.543-9.741,6.597-15.688
			C100.049,16.515,97.802,10.901,93.676,6.661z"/>
	</g>
	<path fill="#AAAAAA" d="M71.202,28.952c2.374,2.436,2.008,6.679-0.811,9.477L38.18,70.384c-2.817,2.798-7.027,3.093-9.399,0.657
		l0,0c-2.367-2.437-2.001-6.675,0.817-9.477L61.809,29.61C64.632,26.814,68.834,26.518,71.202,28.952L71.202,28.952z"/>
</g>
</svg>
